<svg width="304" height="252" viewBox="0 0 304 252" fill="none" xmlns="http://www.w3.org/2000/svg">
<path d="M16.375 3.0625H33.5L54.75 67.1875L76.3125 3.0625H93.1875L108.688 95H91.8125L81.9375 36.9375L62.375 95H46.9375L27.625 36.9375L17.5625 95H0.5L16.375 3.0625ZM166.188 0.75C179.188 0.75 190.354 5.45833 199.688 14.875C209.062 24.2917 213.75 35.7708 213.75 49.3125C213.75 62.7292 209.125 74.0833 199.875 83.375C190.667 92.6667 179.479 97.3125 166.312 97.3125C152.521 97.3125 141.062 92.5417 131.938 83C122.812 73.4583 118.25 62.125 118.25 49C118.25 40.2083 120.375 32.125 124.625 24.75C128.875 17.375 134.708 11.5417 142.125 7.25C149.583 2.91667 157.604 0.75 166.188 0.75ZM166 17.875C157.5 17.875 150.354 20.8333 144.562 26.75C138.771 32.6667 135.875 40.1875 135.875 49.3125C135.875 59.4792 139.521 67.5208 146.812 73.4375C152.479 78.0625 158.979 80.375 166.312 80.375C174.604 80.375 181.667 77.375 187.5 71.375C193.333 65.375 196.25 57.9792 196.25 49.1875C196.25 40.4375 193.312 33.0417 187.438 27C181.562 20.9167 174.417 17.875 166 17.875ZM230.312 3.0625H247.062L286.5 63.5625V3.0625H304V95H287.188L247.812 34.6875V95H230.312V3.0625ZM7.5 160.062H25V235.312H50.5V252H7.5V160.062ZM63.875 160.062H81.375V235.312H106.875V252H63.875V160.062ZM120.312 160.062H170.5V177.188H137.688V193.812H170.5V210.625H137.688V234.812H170.5V252H120.312V160.062Z" fill="black"/>
</svg>
